<?xml version="1.0" encoding="UTF-8"?>
<!DOCTYPE svg PUBLIC "-//W3C//DTD SVG 1.1//EN" "http://www.w3.org/Graphics/SVG/1.1/DTD/svg11.dtd">
<svg xmlns="http://www.w3.org/2000/svg" version="1.1" width="314px" height="322px" style="shape-rendering:geometricPrecision; text-rendering:geometricPrecision; image-rendering:optimizeQuality; fill-rule:evenodd; clip-rule:evenodd" xmlns:xlink="http://www.w3.org/1999/xlink">
<g><path style="opacity:1" fill="#fefefe" d="M 162.5,41.5 C 164.074,41.9371 165.241,42.9371 166,44.5C 193.432,95.6962 220.099,147.363 246,199.5C 257.991,222.812 268.324,246.812 277,271.5C 277.497,274.146 277.664,276.813 277.5,279.5C 276.127,279.657 274.793,279.49 273.5,279C 249.968,253.458 224.635,230.125 197.5,209C 180.894,196.032 162.227,187.366 141.5,183C 122.564,180.317 106.564,185.817 93.5,199.5C 108.226,202.01 122.893,204.843 137.5,208C 140.267,208.669 140.767,209.836 139,211.5C 105.779,219.344 72.4461,226.677 39,233.5C 37.8333,233.167 36.6667,232.833 35.5,232.5C 77.5954,168.633 119.929,104.966 162.5,41.5 Z"/></g>
</svg>
